<svg width="153" height="100" viewBox="0 0 153 100" fill="none" xmlns="http://www.w3.org/2000/svg">
<g clip-path="url(#clip0_2_291)">
<path fill-rule="evenodd" clip-rule="evenodd" d="M4.2043 85.9873V87.4431V89.5359V92.9026V94.0855V99.818H0V82.5296H13.8011V85.9873H4.2043ZM25.8656 96.4513L27.328 99.818H31.7151L23.9462 82.6206H20.1075L12.3387 99.818H16.7258L18.1882 96.4513H25.8656ZM31.8064 93.4486H35.828V93.9945C35.828 96.0873 37.8387 96.6333 39.8495 96.6333C41.3118 96.6333 43.6882 96.2693 43.6882 94.6315C43.6882 91.2648 32.172 94.0855 32.172 87.5341C32.172 83.8034 35.828 82.2566 39.6667 82.2566C43.9624 82.2566 47.5269 84.0764 47.5269 88.1711V88.717H43.5054V88.1711C43.5054 86.2602 41.6774 85.7143 39.7581 85.7143C38.5699 85.7143 36.2849 85.9873 36.2849 87.4431C36.2849 90.3549 47.8011 87.7161 47.8011 94.5405C47.8011 98.5441 43.871 100.091 39.7581 100.091C35.2796 100.091 31.7151 98.3621 31.7151 94.0855V93.4486H31.8064ZM54.1075 85.9873H48.0753V82.5296H64.5269V85.9873H58.4032V99.818H54.1989V85.9873H54.1075ZM19.6505 93.0846L22.0269 87.8071L24.4032 93.0846H19.6505Z" fill="#575656"/>
<path fill-rule="evenodd" clip-rule="evenodd" d="M79.7903 90.7189C81.3441 91.5378 81.9838 92.8117 81.9838 94.6315C81.9838 98.4532 78.9677 99.8181 74.9462 99.8181H65.8978V82.5296H75.129C78.7849 82.5296 81.7097 83.8035 81.7097 87.2612C81.6183 88.8081 81.0699 89.991 79.7903 90.7189ZM88.3817 85.9873V89.0811V92.3568V95.5415V96.3604H98.6183V99.8181H84.1774V82.5296H98.4355V85.9873H88.3817ZM105.382 85.9873H99.3494V82.5296H115.801V85.9873H109.677V99.8181H105.473V85.9873H105.382ZM115.801 91.1739C115.801 85.8053 118.726 82.3477 125.124 82.3477C131.43 82.3477 134.355 85.8963 134.355 91.1739C134.355 96.4514 131.43 100 125.124 100C118.726 100 115.801 96.5424 115.801 91.1739ZM148.704 93.3577V82.5296H152.909V99.7271H149.253L140.57 88.9901V99.7271H136.366V82.5296H140.021L148.704 93.3577ZM70.1021 92.4477V96.3604H74.8548C76.5914 96.3604 77.9623 96.1784 77.9623 94.4496C77.9623 92.7207 76.6828 92.4477 74.8548 92.4477H70.1021ZM70.1021 85.8963V89.172H74.7634C76.2258 89.172 77.5054 88.9901 77.5054 87.5342C77.5054 86.0783 76.3172 85.8963 74.8548 85.8963H70.1021ZM119.914 91.1739C119.914 94.3586 121.194 96.5424 125.124 96.5424C129.054 96.5424 130.242 94.3586 130.242 91.1739C130.242 87.9891 129.054 85.8053 125.124 85.8053C121.102 85.8053 119.914 87.9891 119.914 91.1739Z" fill="#575656"/>
<path d="M96.8817 89.991H89.4785V93.4487H96.8817V89.991Z" fill="#E63719"/>
<path d="M12.6129 89.991H5.20966V93.4487H12.6129V89.991Z" fill="#E63719"/>
<path fill-rule="evenodd" clip-rule="evenodd" d="M106.296 0V21.4741L98.0699 29.6633V8.18926H54.9301V51.1374H62.5161V14.6497L91.4893 14.7407V23.2029L71.0161 23.1119V29.1174H90.7581V37.5796H71.0161V59.3267H46.6129V0H106.296ZM77.5968 51.1374V59.3267H89.6613H106.387V37.9436L98.1613 29.7543V51.2284H89.7527H82.8065H77.5968V51.1374Z" fill="url(#paint0_linear_2_291)"/>
<path fill-rule="evenodd" clip-rule="evenodd" d="M98.0699 8.18926H54.9301V51.1374L46.7043 59.3267V0H106.387L98.0699 8.18926ZM62.5161 14.6497L91.4892 14.7407L62.5161 14.6497Z" fill="url(#paint1_linear_2_291)"/>
</g>
<defs>
<linearGradient id="paint0_linear_2_291" x1="67.0818" y1="37.0313" x2="110.124" y2="3.17582" gradientUnits="userSpaceOnUse">
<stop stop-color="#575656"/>
<stop offset="1" stop-color="#D9DADA"/>
</linearGradient>
<linearGradient id="paint1_linear_2_291" x1="74.5121" y1="3.15842" x2="42.9545" y2="54.2406" gradientUnits="userSpaceOnUse">
<stop stop-color="#E63719"/>
<stop offset="1" stop-color="#A72306"/>
</linearGradient>
<clipPath id="clip0_2_291">
<rect width="153" height="100" fill="white"/>
</clipPath>
</defs>
</svg>
