<svg width="19" height="19" viewBox="0 0 19 19" fill="none" xmlns="http://www.w3.org/2000/svg">
<path d="M18.2766 13.2563L14.5173 11.3767C14.3409 11.2886 14.1412 11.2583 13.9465 11.29C13.7519 11.3217 13.5722 11.4139 13.4328 11.5534L11.8586 13.1276C9.59645 12.7639 6.03173 9.20009 5.66896 6.93795L7.24315 5.36376C7.38267 5.22438 7.47481 5.04465 7.50652 4.85C7.53823 4.65536 7.5079 4.45567 7.41984 4.27922L5.54021 0.519957C5.47868 0.396733 5.39081 0.28854 5.28284 0.203035C5.17486 0.11753 5.04941 0.0568027 4.91536 0.0251517C4.78132 -0.0064993 4.64195 -0.00830049 4.50713 0.0198755C4.37231 0.0480516 4.24534 0.105516 4.13519 0.188202L0.375926 3.00765C0.259205 3.09519 0.164468 3.2087 0.0992188 3.3392C0.0339696 3.4697 0 3.6136 0 3.7595C0 12.7535 6.04301 18.7965 15.037 18.7965C15.1829 18.7965 15.3268 18.7626 15.4573 18.6973C15.5878 18.6321 15.7014 18.5373 15.7889 18.4206L18.6083 14.6614C18.691 14.5512 18.7485 14.4242 18.7767 14.2894C18.8048 14.1546 18.803 14.0152 18.7714 13.8812C18.7397 13.7471 18.679 13.6217 18.5935 13.5137C18.508 13.4057 18.3998 13.3179 18.2766 13.2563Z" fill="#E53719"/>
</svg>
