<svg width="194" height="91" viewBox="0 0 194 91" fill="none" xmlns="http://www.w3.org/2000/svg">
<g clip-path="url(#clip0_8_88)">
<path fill-rule="evenodd" clip-rule="evenodd" d="M0 91V79.8019H2.59234V84.475L8.72298 79.8019H12.4471L5.12378 85.079L13.3468 91H9.21577L2.59234 86.0737V91H0ZM19.0741 86.5295H23.9228L21.5341 81.972L19.0741 86.5295ZM14.1251 91L20.3844 79.8019H22.866L29.2073 91H26.3188L24.9904 88.5477H17.9778L16.6888 91H14.1251ZM31.2425 91V89.7812L38.9692 81.7984H32.0137V79.8019H43.111V80.916L35.2666 88.8949H43.111V91H31.2425ZM52.5195 81.7984V91H49.9486V81.7984H44.8713V79.8019H57.6182V81.7984H52.5195ZM60.7675 91V79.8019H72.0792V81.7117H63.3383V84.2073H68.4371V86.1171H63.3383V88.8949H72.1863V91H60.7675ZM76.9387 91V79.8019H79.5095V88.8949H87.8004V91H76.9387ZM91.5744 91V79.8019H102.886V81.7117H94.1453V84.2073H99.2441V86.1171H94.1453V88.8949H102.993V91H91.5744ZM107.724 91V79.8019H109.802L115.015 86.5729L120.103 79.8019H122.164V91H119.786V84.0808C119.786 83.9469 119.793 83.777 119.811 83.5744C119.828 83.3682 119.853 83.1403 119.879 82.8835C119.739 83.173 119.618 83.4116 119.514 83.5996C119.407 83.7878 119.314 83.9397 119.232 84.0591L115.076 89.6545H114.565L110.399 84.041C110.245 83.8275 110.113 83.6287 110.006 83.4405C109.899 83.2524 109.809 83.0717 109.738 82.8944C109.76 83.1295 109.777 83.3393 109.788 83.531C109.799 83.7227 109.802 83.9036 109.802 84.0808V91H107.724ZM130.408 86.5295H135.257L132.868 81.972L130.408 86.5295ZM125.459 91L131.719 79.8019H134.2L140.542 91H137.653L136.324 88.5477H129.312L128.023 91H125.459ZM147.786 81.7984V91H145.215V81.7984H140.138V79.8019H152.885V81.7984H147.786ZM156.034 91V79.8019H158.605V91H156.034ZM173.533 81.7984H166.592V88.8949H173.533V86.486L176.104 87.0287V88.3523C176.104 89.3759 175.915 90.0741 175.533 90.443C175.155 90.8155 174.433 91 173.366 91H166.76C165.685 91 164.96 90.8155 164.586 90.443C164.211 90.0741 164.021 89.3759 164.021 88.3523V82.4458C164.021 81.433 164.211 80.735 164.586 80.3625C164.96 79.99 165.685 79.8019 166.76 79.8019H173.366C174.433 79.8019 175.155 79.99 175.533 80.3625C175.915 80.735 176.104 81.433 176.104 82.4458V83.5093L173.533 83.9252V81.7984ZM183.867 86.5295H188.715L186.327 81.972L183.867 86.5295ZM178.918 91L185.177 79.8019H187.659L194 91H191.111L189.783 88.5477H182.77L181.481 91H178.918Z" fill="#0C256C"/>
<path fill-rule="evenodd" clip-rule="evenodd" d="M103.468 55.719L105.675 56.0967L105.617 57.7755L103.635 57.6563L103.468 55.719ZM103.478 52.2942L105.675 52.7425L105.583 54.3776L103.471 54.0469L103.478 52.2942ZM103.494 48.8494C105.616 49.0928 105.702 48.8981 105.609 51.1157L103.456 50.5835L103.494 48.8494ZM103.49 45.47C105.2 45.5825 105.707 45.8242 105.594 47.79L103.496 47.1706L103.49 45.47ZM103.46 42.0419C105.458 42.1242 105.623 42.4498 105.656 44.4241L103.47 43.5965L103.46 42.0419ZM103.427 38.6071C105.364 38.733 105.656 38.8824 105.646 40.9842C103.587 40.6552 103.448 40.6049 103.427 38.6071ZM103.43 35.2109C105.415 35.3956 105.618 35.7918 105.687 37.6552C103.798 37.3379 103.453 37.1935 103.43 35.2109ZM96.6285 54.3709C110.361 67.2338 96.6286 54.3709 110.361 67.2338L110.478 32.1773C96.1943 24.9048 110.478 32.1773 96.1943 24.8746C96.6286 54.3709 96.1943 24.8746 96.6285 54.3709Z" fill="#0C256C"/>
<path fill-rule="evenodd" clip-rule="evenodd" d="M88.0241 57.7823L87.9793 56.0532L90.2878 55.7343C90.2481 57.8882 90.3957 57.8277 88.0241 57.7823ZM83.2178 66.6865C96.6273 54.2818 83.2178 66.6865 96.6286 54.3708C96.1939 24.8749 96.9114 54.4213 96.1939 24.8749C83.2494 30.888 96.1943 24.8749 83.2494 30.888L83.2178 66.6865ZM89.0911 37.6686L87.9695 37.6366L88.0373 36.809C88.2741 35.1923 88.6457 35.2493 90.2878 35.0968C90.1504 37.7041 90.4268 36.1072 89.0911 37.6686ZM88.0539 54.4901L88.0156 52.6905L90.1998 52.1499L90.2481 54.0687L88.0539 54.4901ZM88.0058 51.1175L87.9558 49.5176L90.243 48.7069L90.2515 50.6758L88.0058 51.1175ZM88.0621 47.8067L87.9857 46.1346L90.2049 45.2768L90.2596 46.9808L88.0621 47.8067ZM87.9844 44.4743C87.9812 42.2906 88.1597 42.2365 90.2382 41.9699L90.228 43.5966L87.9844 44.4743ZM87.9494 41.0044C87.9989 38.9664 88.2843 38.8121 90.263 38.5334C90.2016 40.5308 90.0791 40.7676 87.9494 41.0044ZM88.0821 34.4188C88.0837 32.3167 88.4515 31.8115 90.3509 31.6538C90.4255 33.9736 89.9068 33.774 88.0821 34.4188Z" fill="#E30016"/>
<path fill-rule="evenodd" clip-rule="evenodd" d="M118.905 71.0731L130.16 71.9343L130.206 49.6316C118.902 42.6378 130.206 49.6316 118.902 42.6378L118.905 71.0731Z" fill="#E30016"/>
<path fill-rule="evenodd" clip-rule="evenodd" d="M74.6713 71.0396L74.494 42.4817C63.6655 49.5175 74.494 42.4817 63.6655 49.5175L63.5164 71.8001L74.6713 71.0396Z" fill="#E30016"/>
<path fill-rule="evenodd" clip-rule="evenodd" d="M90.7219 8.49134L90.649 16.1046L83.3239 19.4957L83.2195 27.6715C96.7063 22.7023 83.2195 27.6715 96.7063 22.7023L96.7957 13.7308C102.459 16.6603 96.7958 13.7308 102.459 16.6603L102.445 0C90.7219 8.49134 102.445 -5.20128e-07 90.7219 8.49134Z" fill="#E30016"/>
<path fill-rule="evenodd" clip-rule="evenodd" d="M102.459 16.6603C96.7958 13.7308 102.459 16.6603 96.7958 13.7308L96.7063 22.7023C110.432 28.3866 96.7063 22.7023 110.432 28.3866C110.468 10.3984 110.432 28.3866 110.473 10.1734C110.571 5.51818 109.9 6.3324 107.462 4.249C105.554 2.61893 104.519 1.59991 102.445 0L102.459 16.6603Z" fill="#0C256C"/>
<path fill-rule="evenodd" clip-rule="evenodd" d="M74.6714 71.0396L80.2448 70.6349C80.3857 53.7463 80.2464 70.4066 80.3857 53.7463C80.4138 49.133 80.9956 49.7945 76.7 44.7397C74.4941 42.4817 76.7447 44.7917 74.4941 42.4817L74.6714 71.0396Z" fill="#0C256C"/>
<path fill-rule="evenodd" clip-rule="evenodd" d="M118.905 71.0731L118.902 42.6378C117.616 43.5276 116.035 45.9702 115.107 47.1319C112.991 49.7777 113.231 49.4755 113.259 53.7446C113.365 70.5963 113.259 53.7446 113.365 70.5963L118.905 71.0731Z" fill="#0C256C"/>
<path fill-rule="evenodd" clip-rule="evenodd" d="M96.8024 63.7922C97.0693 58.1515 96.7212 64.0575 96.7909 58.3513C96.3268 58.1951 85.5513 68.3669 84.0714 69.814C82.2749 71.5667 81.8307 73.0659 78.8328 73.368C71.2259 74.1335 53.3044 74.9041 47.3879 75.9769C57.4757 76.2169 67.7374 75.9886 77.85 76.0356C81.738 76.0541 83.1433 74.1755 87.4588 70.6988C88.7515 69.6579 95.7683 64.0575 96.8024 63.7922Z" fill="#E30016"/>
<path fill-rule="evenodd" clip-rule="evenodd" d="M96.8025 63.7923C99.131 64.4268 103.924 68.9428 105.929 70.5309C110.25 73.954 111.797 76.0038 115.773 76.0256C125.866 76.081 136.58 76.3228 146.615 75.9618C136.593 74.8992 125.997 74.5013 115.81 73.5796C111.222 73.165 110.864 70.7257 106.096 66.5388C104.063 64.6535 98.9785 59.32 96.7909 58.3513C96.7744 61.8566 96.7909 58.3513 96.8025 63.7923Z" fill="#0C256C"/>
<path fill-rule="evenodd" clip-rule="evenodd" d="M88.0372 36.8091L87.9692 37.6367L89.0912 37.6686C90.427 36.1074 90.1502 37.7039 90.2878 35.0967C88.6454 35.2495 88.2742 35.1924 88.0372 36.8091Z" fill="white"/>
<path fill-rule="evenodd" clip-rule="evenodd" d="M88.082 34.4185C89.9067 33.7739 90.4254 33.9737 90.3508 31.6536C88.4516 31.8114 88.0837 32.3167 88.082 34.4185Z" fill="white"/>
<path fill-rule="evenodd" clip-rule="evenodd" d="M87.9495 41.0044C90.079 40.7676 90.2016 40.5309 90.263 38.5332C88.2842 38.8118 87.9992 38.9663 87.9495 41.0044Z" fill="white"/>
<path fill-rule="evenodd" clip-rule="evenodd" d="M88.024 57.7821C90.3955 57.8274 90.248 57.8879 90.2878 55.734L87.9792 56.053L88.024 57.7821Z" fill="white"/>
<path fill-rule="evenodd" clip-rule="evenodd" d="M90.2479 54.0687L90.1999 52.1499L88.0156 52.6905L88.0537 54.4901L90.2479 54.0687Z" fill="white"/>
<path fill-rule="evenodd" clip-rule="evenodd" d="M90.2514 50.6759L90.2431 48.7067L87.9561 49.5175L88.0058 51.1174L90.2514 50.6759Z" fill="white"/>
<path fill-rule="evenodd" clip-rule="evenodd" d="M105.646 40.9842C105.656 38.8824 105.364 38.733 103.427 38.6071C103.448 40.6048 103.587 40.6552 105.646 40.9842Z" fill="white"/>
<path fill-rule="evenodd" clip-rule="evenodd" d="M90.2281 43.5965L90.2381 41.9697C88.1599 42.2366 87.9808 42.2904 87.9842 44.4744L90.2281 43.5965Z" fill="white"/>
<path fill-rule="evenodd" clip-rule="evenodd" d="M103.456 50.5836L105.609 51.1158C105.702 48.8981 105.616 49.0928 103.494 48.8494L103.456 50.5836Z" fill="white"/>
<path fill-rule="evenodd" clip-rule="evenodd" d="M105.687 37.6552C105.617 35.7918 105.415 35.3956 103.43 35.2109C103.453 37.1936 103.798 37.3379 105.687 37.6552Z" fill="white"/>
<path fill-rule="evenodd" clip-rule="evenodd" d="M90.2596 46.9808L90.2049 45.2769L87.9858 46.1347L88.0621 47.8068L90.2596 46.9808Z" fill="white"/>
<path fill-rule="evenodd" clip-rule="evenodd" d="M103.635 57.6563L105.617 57.7755L105.676 56.0967L103.468 55.719L103.635 57.6563Z" fill="white"/>
<path fill-rule="evenodd" clip-rule="evenodd" d="M103.47 43.5965L105.656 44.4241C105.622 42.4498 105.458 42.1242 103.46 42.0419L103.47 43.5965Z" fill="white"/>
<path fill-rule="evenodd" clip-rule="evenodd" d="M103.496 47.1706L105.594 47.79C105.707 45.8242 105.2 45.5824 103.49 45.47L103.496 47.1706Z" fill="white"/>
<path fill-rule="evenodd" clip-rule="evenodd" d="M103.471 54.0468L105.583 54.3776L105.675 52.7424L103.478 52.2942L103.471 54.0468Z" fill="white"/>
<path fill-rule="evenodd" clip-rule="evenodd" d="M94.0496 68.9008H96.3583V72.5991H94.0496V68.9008Z" fill="#0C256C"/>
<path fill-rule="evenodd" clip-rule="evenodd" d="M97.4712 68.9008H99.78V72.5991H97.4712V68.9008Z" fill="#0C256C"/>
<path fill-rule="evenodd" clip-rule="evenodd" d="M93.9504 73.3293H96.4578V75.9818H93.9504V73.3293Z" fill="#102A83" stroke="#0C256C" stroke-width="0.216"/>
<path fill-rule="evenodd" clip-rule="evenodd" d="M97.3723 73.3295H99.8795V75.9819H97.3723V73.3295Z" fill="#0C256C"/>
</g>
<defs>
<clipPath id="clip0_8_88">
<rect width="194" height="91" fill="white"/>
</clipPath>
</defs>
</svg>
