<svg width="24" height="24" viewBox="0 0 24 24" fill="none" xmlns="http://www.w3.org/2000/svg">
<path fill-rule="evenodd" clip-rule="evenodd" d="M4.812 21.6C4.812 20.274 5.874 19.2 7.2 19.2C8.526 19.2 9.6 20.274 9.6 21.6C9.6 22.926 8.526 24 7.2 24C5.874 24 4.812 22.926 4.812 21.6ZM0 2.4V0H3.918L5.058 2.4H22.8C23.46 2.4 24 2.934 24 3.6C24 3.81 23.946 4.008 23.85 4.176L19.56 11.964C19.146 12.702 18.36 13.2 17.46 13.2H8.52L7.446 15.156C7.422 15.198 7.41 15.246 7.41 15.3C7.41 15.468 7.542 15.6 7.71 15.6H21.6V18H7.2C5.874 18 4.8 16.926 4.8 15.6C4.8 15.18 4.908 14.79 5.094 14.442L6.714 11.502L2.4 2.4H0ZM16.812 21.6C16.812 20.274 17.874 19.2 19.2 19.2C20.526 19.2 21.6 20.274 21.6 21.6C21.6 22.926 20.526 24 19.2 24C17.874 24 16.812 22.926 16.812 21.6ZM9 10.8L5.4 4.176H21.3L17.46 10.8H9Z" fill="#058FF8"/>
</svg>
