<svg width="20" height="20" viewBox="0 0 20 20" fill="none" xmlns="http://www.w3.org/2000/svg">
<path d="M14.5 0.5C12.76 0.5 11.09 1.33869 10 2.65886C8.91 1.33869 7.24 0.5 5.5 0.5C2.415 0.5 0 3.00054 0 6.19482C0 10.1035 3.4 13.2978 8.55 18.1384L10 19.5L11.45 18.1384C16.6 13.2978 20 10.1035 20 6.19482C20 3.00054 17.585 0.5 14.5 0.5ZM10.105 16.606L10 16.7044L9.895 16.606C5.14 12.1381 2 9.18719 2 6.19482C2 4.12915 3.505 2.57084 5.5 2.57084C7.04 2.57084 8.54 3.60109 9.065 5.01444H10.93C11.46 3.60109 12.96 2.57084 14.5 2.57084C16.495 2.57084 18 4.12915 18 6.19482C18 9.18719 14.86 12.1381 10.105 16.606Z" fill="#FD8A25"/>
<path d="M10.105 16.606L10 16.7044L9.895 16.606C5.14 12.1381 2 9.18719 2 6.19482C2 4.12915 3.505 2.57084 5.5 2.57084C7.04 2.57084 8.54 3.60109 9.065 5.01444H10.93C11.46 3.60109 12.96 2.57084 14.5 2.57084C16.495 2.57084 18 4.12915 18 6.19482C18 9.18719 14.86 12.1381 10.105 16.606Z" fill="#FD8A25"/>
</svg>
