<svg width="149" height="88" viewBox="0 0 149 88" fill="none" xmlns="http://www.w3.org/2000/svg">
<path d="M70.3611 45.5541C53.0265 37.0169 41.0643 43.2905 37.25 47.4944C45.7712 19.6031 74.9869 35.3677 75.7173 35.6102C89.7408 44.7295 105.582 34.3976 111.75 28.0917C110.776 41.431 92.0294 56.2256 70.3611 45.5541Z" fill="#058FF8"/>
<path d="M102.255 18.3904C104.787 25.5694 98.2785 30.4363 94.7076 31.9723C108.098 31.2447 111.75 22.271 113.211 17.6628C114.672 13.0547 112.724 6.26378 106.394 7.96152C101.33 9.3197 101.525 15.48 102.255 18.3904Z" fill="#00C4FF"/>
<path d="M86.9168 12.8122C95.0972 14.1704 96.1684 22.4327 95.6815 26.394C97.6292 22.1093 99.9665 11.7935 93.7338 4.80858C87.5011 -2.17637 82.8591 -0.0420807 81.3171 1.89818C79.7752 4.97027 78.7364 11.454 86.9168 12.8122Z" fill="#00C4FF"/>
<path d="M1.77134 61.8729H11.8866V64.7164H4.91779V68.5621H10.628V71.4055H4.91779V77.2556H1.77134V61.8729ZM21.4022 77.5353C19.9106 77.5353 18.5432 77.1857 17.3002 76.4865C16.0572 75.7872 15.0705 74.8317 14.3402 73.6197C13.6099 72.3922 13.2448 71.0404 13.2448 69.5643C13.2448 68.0881 13.6099 66.7441 14.3402 65.5321C15.0705 64.3046 16.0572 63.3413 17.3002 62.6421C18.5432 61.9429 19.9106 61.5932 21.4022 61.5932C22.8939 61.5932 24.2612 61.9429 25.5043 62.6421C26.7629 63.3413 27.7573 64.3046 28.4876 65.5321C29.2334 66.7441 29.6063 68.0881 29.6063 69.5643C29.6063 71.0404 29.2334 72.3922 28.4876 73.6197C27.7573 74.8317 26.7629 75.7872 25.5043 76.4865C24.2612 77.1857 22.8939 77.5353 21.4022 77.5353ZM21.4255 74.6219C22.3578 74.6219 23.1969 74.4121 23.9427 73.9926C24.7041 73.5575 25.2945 72.9593 25.714 72.198C26.1491 71.4211 26.3666 70.5432 26.3666 69.5643C26.3666 68.6009 26.1491 67.7385 25.714 66.9772C25.2945 66.2003 24.7041 65.5943 23.9427 65.1592C23.1969 64.7242 22.3578 64.5066 21.4255 64.5066C20.4777 64.5066 19.6309 64.7242 18.8851 65.1592C18.1393 65.5788 17.5488 66.177 17.1137 66.9539C16.6942 67.7152 16.4845 68.5854 16.4845 69.5643C16.4845 70.5432 16.6942 71.4211 17.1137 72.198C17.5488 72.9593 18.1393 73.5575 18.8851 73.9926C19.6309 74.4121 20.4777 74.6219 21.4255 74.6219ZM45.3693 61.8729V77.5353H44.3205L35.4172 68.026V77.2556H32.2708V61.5932H33.2963L42.2229 71.0559V61.8729H45.3693ZM52.3589 64.7164H47.4411V61.8729H60.4465V64.7164H55.5054V77.2556H52.3589V64.7164ZM69.8337 75.2512H63.5408L62.6785 77.2556H59.2989L66.1745 61.5932H67.2233L74.0756 77.2556H70.6961L69.8337 75.2512ZM66.6873 67.4666L64.6363 72.6641H68.7383L66.6873 67.4666ZM89.2749 61.8729V77.5353H88.2261L79.3228 68.026V77.2556H76.1763V61.5932H77.2019L86.1285 71.0559V61.8729H89.2749ZM92.7917 61.8729H103.14V64.7164H95.9382V67.8395H101.229V70.5198H95.9382V74.4121H103.42V77.2556H92.7917V61.8729ZM115.592 77.2556L111.606 71.825H109.299V77.2556H106.152V61.8729H111.932C113.005 61.8729 113.96 62.0827 114.799 62.5022C115.638 62.9062 116.291 63.4889 116.757 64.2503C117.239 64.9961 117.48 65.8584 117.48 66.8373C117.48 67.8162 117.239 68.6864 116.757 69.4477C116.275 70.2091 115.615 70.7995 114.776 71.2191L119.134 77.2556H115.592ZM109.299 69.0515H111.932C112.663 69.0515 113.23 68.8495 113.634 68.4455C114.053 68.0415 114.263 67.5055 114.263 66.8373C114.263 66.1847 114.053 65.6564 113.634 65.2525C113.214 64.8485 112.647 64.6465 111.932 64.6465H109.299V69.0515ZM127.991 77.5353C126.499 77.5353 125.132 77.1857 123.889 76.4865C122.646 75.7872 121.659 74.8317 120.929 73.6197C120.199 72.3922 119.834 71.0404 119.834 69.5643C119.834 68.0881 120.199 66.7441 120.929 65.5321C121.659 64.3046 122.646 63.3413 123.889 62.6421C125.132 61.9429 126.499 61.5932 127.991 61.5932C129.483 61.5932 130.85 61.9429 132.093 62.6421C133.352 63.3413 134.346 64.3046 135.076 65.5321C135.822 66.7441 136.195 68.0881 136.195 69.5643C136.195 71.0404 135.822 72.3922 135.076 73.6197C134.346 74.8317 133.352 75.7872 132.093 76.4865C130.85 77.1857 129.483 77.5353 127.991 77.5353ZM128.014 74.6219C128.947 74.6219 129.786 74.4121 130.531 73.9926C131.293 73.5575 131.883 72.9593 132.303 72.198C132.738 71.4211 132.955 70.5432 132.955 69.5643C132.955 68.6009 132.738 67.7385 132.303 66.9772C131.883 66.2003 131.293 65.5943 130.531 65.1592C129.786 64.7242 128.947 64.5066 128.014 64.5066C127.066 64.5066 126.22 64.7242 125.474 65.1592C124.728 65.5788 124.138 66.177 123.703 66.9539C123.283 67.7152 123.073 68.5854 123.073 69.5643C123.073 70.5432 123.283 71.4211 123.703 72.198C124.138 72.9593 124.728 73.5575 125.474 73.9926C126.22 74.4121 127.066 74.6219 128.014 74.6219Z" fill="#00C4FF"/>
<path d="M1.77134 61.8729V61.4204H1.31875V61.8729H1.77134ZM11.8866 61.8729H12.3392V61.4204H11.8866V61.8729ZM11.8866 64.7164V65.169H12.3392V64.7164H11.8866ZM4.91779 64.7164V64.2638H4.4652V64.7164H4.91779ZM4.91779 68.5621H4.4652V69.0146H4.91779V68.5621ZM10.628 68.5621H11.0806V68.1095H10.628V68.5621ZM10.628 71.4055V71.8581H11.0806V71.4055H10.628ZM4.91779 71.4055V70.9529H4.4652V71.4055H4.91779ZM4.91779 77.2556V77.7082H5.37037V77.2556H4.91779ZM1.77134 77.2556H1.31875V77.7082H1.77134V77.2556ZM1.77134 62.3255H11.8866V61.4204H1.77134V62.3255ZM11.434 61.8729V64.7164H12.3392V61.8729H11.434ZM11.8866 64.2638H4.91779V65.169H11.8866V64.2638ZM4.4652 64.7164V68.5621H5.37037V64.7164H4.4652ZM4.91779 69.0146H10.628V68.1095H4.91779V69.0146ZM10.1754 68.5621V71.4055H11.0806V68.5621H10.1754ZM10.628 70.9529H4.91779V71.8581H10.628V70.9529ZM4.4652 71.4055V77.2556H5.37037V71.4055H4.4652ZM4.91779 76.803H1.77134V77.7082H4.91779V76.803ZM2.22392 77.2556V61.8729H1.31875V77.2556H2.22392ZM17.3002 76.4865L17.0783 76.8809L17.3002 76.4865ZM14.3402 73.6197L13.9512 73.8511L13.9526 73.8533L14.3402 73.6197ZM14.3402 65.5321L14.7279 65.7657L14.7292 65.7635L14.3402 65.5321ZM25.5043 62.6421L25.2824 63.0365L25.2845 63.0377L25.5043 62.6421ZM28.4876 65.5321L28.0986 65.7636L28.1021 65.7693L28.4876 65.5321ZM28.4876 73.6197L28.1008 73.3847L28.0999 73.3861L28.4876 73.6197ZM25.5043 76.4865L25.2845 76.0908L25.2824 76.092L25.5043 76.4865ZM23.9427 73.9926L24.1646 74.3871L24.1673 74.3856L23.9427 73.9926ZM25.714 72.198L25.3192 71.9768L25.3177 71.9795L25.714 72.198ZM25.714 66.9772L25.3157 67.1923L25.3211 67.2017L25.714 66.9772ZM23.9427 65.1592L23.7147 65.5502L23.7182 65.5522L23.9427 65.1592ZM18.8851 65.1592L19.107 65.5537L19.1131 65.5502L18.8851 65.1592ZM17.1137 66.9539L16.7189 66.7327L16.7174 66.7355L17.1137 66.9539ZM17.1137 72.198L16.7154 72.4131L16.7208 72.4225L17.1137 72.198ZM18.8851 73.9926L18.657 74.3836L18.6632 74.3871L18.8851 73.9926ZM21.4022 77.0827C19.9846 77.0827 18.6942 76.7513 17.5221 76.092L17.0783 76.8809C18.3923 77.62 19.8366 77.9879 21.4022 77.9879V77.0827ZM17.5221 76.092C16.3467 75.4308 15.4174 74.5305 14.7279 73.3861L13.9526 73.8533C14.7236 75.1329 15.7676 76.1436 17.0783 76.8809L17.5221 76.092ZM14.7292 73.3883C14.042 72.2332 13.6974 70.9618 13.6974 69.5643H12.7922C12.7922 71.119 13.1779 72.5512 13.9513 73.8511L14.7292 73.3883ZM13.6974 69.5643C13.6974 68.1667 14.0419 66.9041 14.7279 65.7657L13.9526 65.2986C13.1779 66.5842 12.7922 68.0096 12.7922 69.5643H13.6974ZM14.7292 65.7635C15.419 64.604 16.3481 63.6969 17.5221 63.0365L17.0783 62.2476C15.7662 62.9857 14.7219 64.0053 13.9513 65.3007L14.7292 65.7635ZM17.5221 63.0365C18.6942 62.3772 19.9846 62.0458 21.4022 62.0458V61.1407C19.8366 61.1407 18.3923 61.5085 17.0783 62.2476L17.5221 63.0365ZM21.4022 62.0458C22.8199 62.0458 24.1103 62.3772 25.2824 63.0365L25.7262 62.2476C24.4122 61.5085 22.9679 61.1407 21.4022 61.1407V62.0458ZM25.2845 63.0377C26.4738 63.6984 27.4096 64.6053 28.0986 65.7635L28.8765 65.3007C28.105 64.0039 27.052 62.9842 25.7241 62.2464L25.2845 63.0377ZM28.1021 65.7693C28.8024 66.9072 29.1537 68.1686 29.1537 69.5643H30.0589C30.0589 68.0077 29.6644 66.581 28.873 65.2949L28.1021 65.7693ZM29.1537 69.5643C29.1537 70.9599 28.8023 72.23 28.1008 73.3847L28.8744 73.8547C29.6645 72.5543 30.0589 71.1208 30.0589 69.5643H29.1537ZM28.0999 73.3861C27.4112 74.5291 26.4752 75.4293 25.2845 76.0908L25.7241 76.8821C27.0505 76.1452 28.1034 75.1342 28.8752 73.8533L28.0999 73.3861ZM25.2824 76.092C24.1103 76.7513 22.8199 77.0827 21.4022 77.0827V77.9879C22.9679 77.9879 24.4122 77.62 25.7262 76.8809L25.2824 76.092ZM21.4255 75.0745C22.4284 75.0745 23.3451 74.848 24.1646 74.3871L23.7208 73.5981C23.0487 73.9762 22.2873 74.1693 21.4255 74.1693V75.0745ZM24.1673 74.3856C25.0002 73.9096 25.6504 73.2513 26.1104 72.4164L25.3177 71.9795C24.9386 72.6674 24.408 73.2055 23.7182 73.5996L24.1673 74.3856ZM26.1089 72.4191C26.5855 71.5681 26.8192 70.6127 26.8192 69.5643H25.9141C25.9141 70.4736 25.7127 71.274 25.3192 71.9768L26.1089 72.4191ZM26.8192 69.5643C26.8192 68.5301 26.5849 67.589 26.107 66.7526L25.3211 67.2017C25.7133 67.8881 25.9141 68.6717 25.9141 69.5643H26.8192ZM26.1123 66.7621C25.6529 65.9114 25.0025 65.2436 24.1673 64.7663L23.7182 65.5522C24.4056 65.945 24.9361 66.4891 25.3158 67.1922L26.1123 66.7621ZM24.1708 64.7683C23.3502 64.2897 22.4314 64.054 21.4255 64.054V64.9592C22.2843 64.9592 23.0435 65.1587 23.7147 65.5502L24.1708 64.7683ZM21.4255 64.054C20.4057 64.054 19.4787 64.289 18.657 64.7683L19.1131 65.5502C19.7831 65.1593 20.5498 64.9592 21.4255 64.9592V64.054ZM18.6632 64.7648C17.8419 65.2268 17.1928 65.8863 16.7189 66.7327L17.5086 67.175C17.9048 66.4676 18.4367 65.9307 19.107 65.5537L18.6632 64.7648ZM16.7174 66.7355C16.2565 67.5718 16.0319 68.5188 16.0319 69.5643H16.937C16.937 68.652 17.1319 67.8587 17.5101 67.1723L16.7174 66.7355ZM16.0319 69.5643C16.0319 70.6099 16.2566 71.5631 16.7155 72.413L17.512 71.9829C17.1319 71.279 16.937 70.4764 16.937 69.5643H16.0319ZM16.7208 72.4225C17.1946 73.2517 17.8415 73.9078 18.657 74.3835L19.1131 73.6017C18.437 73.2073 17.903 72.6669 17.5067 71.9734L16.7208 72.4225ZM18.6632 74.3871C19.4839 74.8487 20.4086 75.0745 21.4255 75.0745V74.1693C20.5469 74.1693 19.778 73.9756 19.107 73.5981L18.6632 74.3871ZM45.3694 61.8729H45.8219V61.4204H45.3694V61.8729ZM45.3694 77.5353V77.9879H45.8219V77.5353H45.3694ZM44.3205 77.5353L43.9902 77.8446L44.1243 77.9879H44.3205V77.5353ZM35.4172 68.026L35.7476 67.7167L34.9647 66.8804V68.026H35.4172ZM35.4172 77.2556V77.7082H35.8698V77.2556H35.4172ZM32.2708 77.2556H31.8182V77.7082H32.2708V77.2556ZM32.2708 61.5932V61.1407H31.8182V61.5932H32.2708ZM33.2963 61.5932L33.6255 61.2827L33.4915 61.1407H33.2963V61.5932ZM42.2229 71.0559L41.8937 71.3665L42.6755 72.1952V71.0559H42.2229ZM42.2229 61.8729V61.4204H41.7703V61.8729H42.2229ZM44.9168 61.8729V77.5353H45.8219V61.8729H44.9168ZM45.3694 77.0827H44.3205V77.9879H45.3694V77.0827ZM44.6509 77.2259L35.7476 67.7167L35.0869 68.3353L43.9902 77.8446L44.6509 77.2259ZM34.9647 68.026V77.2556H35.8698V68.026H34.9647ZM35.4172 76.803H32.2708V77.7082H35.4172V76.803ZM32.7234 77.2556V61.5932H31.8182V77.2556H32.7234ZM32.2708 62.0458H33.2963V61.1407H32.2708V62.0458ZM32.9671 61.9038L41.8937 71.3665L42.5521 70.7453L33.6255 61.2827L32.9671 61.9038ZM42.6755 71.0559V61.8729H41.7703V71.0559H42.6755ZM42.2229 62.3255H45.3694V61.4204H42.2229V62.3255ZM52.3589 64.7164H52.8115V64.2638H52.3589V64.7164ZM47.4411 64.7164H46.9885V65.169H47.4411V64.7164ZM47.4411 61.8729V61.4204H46.9885V61.8729H47.4411ZM60.4465 61.8729H60.899V61.4204H60.4465V61.8729ZM60.4465 64.7164V65.169H60.899V64.7164H60.4465ZM55.5054 64.7164V64.2638H55.0528V64.7164H55.5054ZM55.5054 77.2556V77.7082H55.9579V77.2556H55.5054ZM52.3589 77.2556H51.9063V77.7082H52.3589V77.2556ZM52.3589 64.2638H47.4411V65.169H52.3589V64.2638ZM47.8937 64.7164V61.8729H46.9885V64.7164H47.8937ZM47.4411 62.3255H60.4465V61.4204H47.4411V62.3255ZM59.9939 61.8729V64.7164H60.899V61.8729H59.9939ZM60.4465 64.2638H55.5054V65.169H60.4465V64.2638ZM55.0528 64.7164V77.2556H55.9579V64.7164H55.0528ZM55.5054 76.803H52.3589V77.7082H55.5054V76.803ZM52.8115 77.2556V64.7164H51.9063V77.2556H52.8115ZM69.8337 75.2512L70.2495 75.0723L70.1317 74.7986H69.8337V75.2512ZM63.5408 75.2512V74.7986H63.2429L63.1251 75.0723L63.5408 75.2512ZM62.6785 77.2556V77.7082H62.9764L63.0942 77.4345L62.6785 77.2556ZM59.2989 77.2556L58.8845 77.0737L58.606 77.7082H59.2989V77.2556ZM66.1745 61.5932V61.1407H65.8789L65.7601 61.4113L66.1745 61.5932ZM67.2233 61.5932L67.638 61.4118L67.5193 61.1407H67.2233V61.5932ZM74.0756 77.2556V77.7082H74.7676L74.4902 77.0742L74.0756 77.2556ZM70.6961 77.2556L70.2804 77.4345L70.3981 77.7082H70.6961V77.2556ZM66.6873 67.4666L67.1083 67.3005L66.6873 66.2337L66.2663 67.3005L66.6873 67.4666ZM64.6363 72.6641L64.2153 72.498L63.9711 73.1167H64.6363V72.6641ZM68.7383 72.6641V73.1167H69.4035L69.1593 72.498L68.7383 72.6641ZM69.8337 74.7986H63.5408V75.7038H69.8337V74.7986ZM63.1251 75.0723L62.2627 77.0767L63.0942 77.4345L63.9566 75.43L63.1251 75.0723ZM62.6785 76.803H59.2989V77.7082H62.6785V76.803ZM59.7134 77.4375L66.5889 61.7752L65.7601 61.4113L58.8845 77.0737L59.7134 77.4375ZM66.1745 62.0458H67.2233V61.1407H66.1745V62.0458ZM66.8087 61.7747L73.661 77.437L74.4902 77.0742L67.638 61.4118L66.8087 61.7747ZM74.0756 76.803H70.6961V77.7082H74.0756V76.803ZM71.1118 77.0767L70.2495 75.0723L69.418 75.43L70.2804 77.4345L71.1118 77.0767ZM66.2663 67.3005L64.2153 72.498L65.0573 72.8302L67.1083 67.6328L66.2663 67.3005ZM64.6363 73.1167H68.7383V72.2115H64.6363V73.1167ZM69.1593 72.498L67.1083 67.3005L66.2663 67.6328L68.3173 72.8302L69.1593 72.498ZM89.2749 61.8729H89.7275V61.4204H89.2749V61.8729ZM89.2749 77.5353V77.9879H89.7275V77.5353H89.2749ZM88.2261 77.5353L87.8957 77.8446L88.0298 77.9879H88.2261V77.5353ZM79.3228 68.026L79.6532 67.7167L78.8702 66.8804V68.026H79.3228ZM79.3228 77.2556V77.7082H79.7754V77.2556H79.3228ZM76.1763 77.2556H75.7238V77.7082H76.1763V77.2556ZM76.1763 61.5932V61.1407H75.7238V61.5932H76.1763ZM77.2019 61.5932L77.5311 61.2827L77.3971 61.1407H77.2019V61.5932ZM86.1284 71.0559L85.7992 71.3665L86.581 72.1952V71.0559H86.1284ZM86.1284 61.8729V61.4204H85.6759V61.8729H86.1284ZM88.8223 61.8729V77.5353H89.7275V61.8729H88.8223ZM89.2749 77.0827H88.2261V77.9879H89.2749V77.0827ZM88.5565 77.2259L79.6532 67.7167L78.9924 68.3353L87.8957 77.8446L88.5565 77.2259ZM78.8702 68.026V77.2556H79.7754V68.026H78.8702ZM79.3228 76.803H76.1763V77.7082H79.3228V76.803ZM76.6289 77.2556V61.5932H75.7238V77.2556H76.6289ZM76.1763 62.0458H77.2019V61.1407H76.1763V62.0458ZM76.8726 61.9038L85.7992 71.3665L86.4577 70.7453L77.5311 61.2827L76.8726 61.9038ZM86.581 71.0559V61.8729H85.6759V71.0559H86.581ZM86.1284 62.3255H89.2749V61.4204H86.1284V62.3255ZM92.7917 61.8729V61.4204H92.3391V61.8729H92.7917ZM103.14 61.8729H103.593V61.4204H103.14V61.8729ZM103.14 64.7164V65.169H103.593V64.7164H103.14ZM95.9382 64.7164V64.2638H95.4856V64.7164H95.9382ZM95.9382 67.8395H95.4856V68.2921H95.9382V67.8395ZM101.229 67.8395H101.681V67.387H101.229V67.8395ZM101.229 70.5198V70.9724H101.681V70.5198H101.229ZM95.9382 70.5198V70.0673H95.4856V70.5198H95.9382ZM95.9382 74.4121H95.4856V74.8647H95.9382V74.4121ZM103.42 74.4121H103.872V73.9595H103.42V74.4121ZM103.42 77.2556V77.7082H103.872V77.2556H103.42ZM92.7917 77.2556H92.3391V77.7082H92.7917V77.2556ZM92.7917 62.3255H103.14V61.4204H92.7917V62.3255ZM102.687 61.8729V64.7164H103.593V61.8729H102.687ZM103.14 64.2638H95.9382V65.169H103.14V64.2638ZM95.4856 64.7164V67.8395H96.3908V64.7164H95.4856ZM95.9382 68.2921H101.229V67.387H95.9382V68.2921ZM100.776 67.8395V70.5198H101.681V67.8395H100.776ZM101.229 70.0673H95.9382V70.9724H101.229V70.0673ZM95.4856 70.5198V74.4121H96.3908V70.5198H95.4856ZM95.9382 74.8647H103.42V73.9595H95.9382V74.8647ZM102.967 74.4121V77.2556H103.872V74.4121H102.967ZM103.42 76.803H92.7917V77.7082H103.42V76.803ZM93.2443 77.2556V61.8729H92.3391V77.2556H93.2443ZM115.592 77.2556L115.227 77.5234L115.362 77.7082H115.592V77.2556ZM111.606 71.825L111.971 71.5573L111.835 71.3725H111.606V71.825ZM109.299 71.825V71.3725H108.846V71.825H109.299ZM109.299 77.2556V77.7082H109.751V77.2556H109.299ZM106.152 77.2556H105.7V77.7082H106.152V77.2556ZM106.152 61.8729V61.4204H105.7V61.8729H106.152ZM114.799 62.5022L114.597 62.9071L114.603 62.91L114.799 62.5022ZM116.757 64.2503L116.371 64.4866L116.377 64.4958L116.757 64.2503ZM114.776 71.2191L114.574 70.8143L114.097 71.0524L114.409 71.484L114.776 71.2191ZM119.134 77.2556V77.7082H120.019L119.501 76.9907L119.134 77.2556ZM109.299 69.0515H108.846V69.5041H109.299V69.0515ZM113.634 68.4455L113.32 68.1195L113.314 68.1255L113.634 68.4455ZM113.634 65.2525L113.948 64.9265L113.634 65.2525ZM109.299 64.6465V64.1939H108.846V64.6465H109.299ZM115.957 76.9878L111.971 71.5573L111.241 72.0928L115.227 77.5234L115.957 76.9878ZM111.606 71.3725H109.299V72.2776H111.606V71.3725ZM108.846 71.825V77.2556H109.751V71.825H108.846ZM109.299 76.803H106.152V77.7082H109.299V76.803ZM106.605 77.2556V61.8729H105.7V77.2556H106.605ZM106.152 62.3255H111.932V61.4204H106.152V62.3255ZM111.932 62.3255C112.944 62.3255 113.829 62.5231 114.597 62.907L115.002 62.0974C114.091 61.6423 113.065 61.4204 111.932 61.4204V62.3255ZM114.603 62.91C115.367 63.278 115.952 63.8027 116.371 64.4866L117.143 64.0139C116.629 63.1751 115.909 62.5345 114.996 62.0944L114.603 62.91ZM116.377 64.4958C116.806 65.161 117.027 65.9363 117.027 66.8373H117.932C117.932 65.7806 117.671 64.8311 117.137 64.0047L116.377 64.4958ZM117.027 66.8373C117.027 67.7383 116.806 68.523 116.375 69.2058L117.139 69.6897C117.671 68.8497 117.932 67.8942 117.932 66.8373H117.027ZM116.375 69.2058C115.939 69.8945 115.342 70.43 114.574 70.8143L114.978 71.6239C115.888 71.1691 116.612 70.5237 117.139 69.6897L116.375 69.2058ZM114.409 71.484L118.767 77.5205L119.501 76.9907L115.143 70.9541L114.409 71.484ZM119.134 76.803H115.592V77.7082H119.134V76.803ZM109.299 69.5041H111.932V68.5989H109.299V69.5041ZM111.932 69.5041C112.748 69.5041 113.443 69.2763 113.954 68.7655L113.314 68.1255C113.017 68.4227 112.578 68.5989 111.932 68.5989V69.5041ZM113.948 68.7715C114.469 68.2694 114.716 67.6087 114.716 66.8373H113.811C113.811 67.4022 113.638 67.8136 113.32 68.1195L113.948 68.7715ZM114.716 66.8373C114.716 66.078 114.467 65.4264 113.948 64.9265L113.32 65.5785C113.64 65.8865 113.811 66.2914 113.811 66.8373H114.716ZM113.948 64.9265C113.426 64.4236 112.736 64.1939 111.932 64.1939V65.0991C112.558 65.0991 113.003 65.2733 113.32 65.5785L113.948 64.9265ZM111.932 64.1939H109.299V65.0991H111.932V64.1939ZM108.846 64.6465V69.0515H109.751V64.6465H108.846ZM123.889 76.4865L123.667 76.8809L123.889 76.4865ZM120.929 73.6197L120.54 73.8511L120.541 73.8533L120.929 73.6197ZM120.929 65.5321L121.317 65.7657L121.318 65.7635L120.929 65.5321ZM132.093 62.6421L131.871 63.0365L131.873 63.0377L132.093 62.6421ZM135.076 65.5321L134.687 65.7636L134.691 65.7693L135.076 65.5321ZM135.076 73.6197L134.69 73.3847L134.689 73.3861L135.076 73.6197ZM132.093 76.4865L131.873 76.0908L131.871 76.092L132.093 76.4865ZM130.531 73.9926L130.753 74.3871L130.756 74.3856L130.531 73.9926ZM132.303 72.198L131.908 71.9768L131.906 71.9795L132.303 72.198ZM132.303 66.9772L131.904 67.1923L131.91 67.2017L132.303 66.9772ZM130.531 65.1592L130.303 65.5502L130.307 65.5522L130.531 65.1592ZM125.474 65.1592L125.696 65.5537L125.702 65.5502L125.474 65.1592ZM123.703 66.9539L123.308 66.7327L123.306 66.7355L123.703 66.9539ZM123.703 72.198L123.304 72.4131L123.31 72.4225L123.703 72.198ZM125.474 73.9926L125.246 74.3836L125.252 74.3871L125.474 73.9926ZM127.991 77.0827C126.573 77.0827 125.283 76.7513 124.111 76.092L123.667 76.8809C124.981 77.62 126.425 77.9879 127.991 77.9879V77.0827ZM124.111 76.092C122.935 75.4308 122.006 74.5305 121.317 73.3861L120.541 73.8533C121.312 75.1329 122.356 76.1436 123.667 76.8809L124.111 76.092ZM121.318 73.3883C120.631 72.2332 120.286 70.9618 120.286 69.5643H119.381C119.381 71.119 119.767 72.5512 120.54 73.8511L121.318 73.3883ZM120.286 69.5643C120.286 68.1667 120.631 66.9041 121.317 65.7657L120.541 65.2986C119.767 66.5842 119.381 68.0096 119.381 69.5643H120.286ZM121.318 65.7635C122.008 64.604 122.937 63.6969 124.111 63.0365L123.667 62.2476C122.355 62.9857 121.311 64.0053 120.54 65.3007L121.318 65.7635ZM124.111 63.0365C125.283 62.3772 126.573 62.0458 127.991 62.0458V61.1407C126.425 61.1407 124.981 61.5085 123.667 62.2476L124.111 63.0365ZM127.991 62.0458C129.409 62.0458 130.699 62.3772 131.871 63.0365L132.315 62.2476C131.001 61.5085 129.557 61.1407 127.991 61.1407V62.0458ZM131.873 63.0377C133.063 63.6984 133.998 64.6053 134.687 65.7635L135.465 65.3007C134.694 64.0039 133.641 62.9842 132.313 62.2464L131.873 63.0377ZM134.691 65.7693C135.391 66.9072 135.742 68.1686 135.742 69.5643H136.648C136.648 68.0077 136.253 66.581 135.462 65.2949L134.691 65.7693ZM135.742 69.5643C135.742 70.9599 135.391 72.23 134.69 73.3847L135.463 73.8547C136.253 72.5543 136.648 71.1208 136.648 69.5643H135.742ZM134.689 73.3861C134 74.5291 133.064 75.4293 131.873 76.0908L132.313 76.8821C133.639 76.1452 134.692 75.1342 135.464 73.8533L134.689 73.3861ZM131.871 76.092C130.699 76.7513 129.409 77.0827 127.991 77.0827V77.9879C129.557 77.9879 131.001 77.62 132.315 76.8809L131.871 76.092ZM128.014 75.0745C129.017 75.0745 129.934 74.848 130.753 74.3871L130.31 73.5981C129.637 73.9762 128.876 74.1693 128.014 74.1693V75.0745ZM130.756 74.3856C131.589 73.9096 132.239 73.2513 132.699 72.4164L131.906 71.9795C131.527 72.6674 130.997 73.2055 130.307 73.5996L130.756 74.3856ZM132.698 72.4191C133.174 71.5681 133.408 70.6127 133.408 69.5643H132.503C132.503 70.4736 132.301 71.274 131.908 71.9768L132.698 72.4191ZM133.408 69.5643C133.408 68.5301 133.174 67.589 132.696 66.7526L131.91 67.2017C132.302 67.8881 132.503 68.6717 132.503 69.5643H133.408ZM132.701 66.7621C132.242 65.9114 131.591 65.2436 130.756 64.7663L130.307 65.5522C130.994 65.945 131.525 66.4891 131.905 67.1922L132.701 66.7621ZM130.76 64.7683C129.939 64.2897 129.02 64.054 128.014 64.054V64.9592C128.873 64.9592 129.632 65.1587 130.303 65.5502L130.76 64.7683ZM128.014 64.054C126.994 64.054 126.067 64.289 125.246 64.7683L125.702 65.5502C126.372 65.1593 127.139 64.9592 128.014 64.9592V64.054ZM125.252 64.7648C124.431 65.2268 123.782 65.8863 123.308 66.7327L124.097 67.175C124.494 66.4676 125.025 65.9307 125.696 65.5537L125.252 64.7648ZM123.306 66.7355C122.845 67.5718 122.621 68.5188 122.621 69.5643H123.526C123.526 68.652 123.721 67.8587 124.099 67.1723L123.306 66.7355ZM122.621 69.5643C122.621 70.6099 122.845 71.5631 123.304 72.413L124.101 71.9829C123.721 71.279 123.526 70.4764 123.526 69.5643H122.621ZM123.31 72.4225C123.783 73.2517 124.43 73.9078 125.246 74.3835L125.702 73.6017C125.026 73.2073 124.492 72.6669 124.095 71.9734L123.31 72.4225ZM125.252 74.3871C126.073 74.8487 126.997 75.0745 128.014 75.0745V74.1693C127.136 74.1693 126.367 73.9756 125.696 73.5981L125.252 74.3871Z" fill="#00C4FF"/>
<mask id="mask0_11_118" style="mask-type:alpha" maskUnits="userSpaceOnUse" x="1" y="61" width="136" height="17">
<path d="M1.77134 61.8729H11.8866V64.7164H4.91779V68.5621H10.628V71.4055H4.91779V77.2556H1.77134V61.8729ZM21.4022 77.5353C19.9106 77.5353 18.5432 77.1857 17.3002 76.4865C16.0572 75.7872 15.0705 74.8317 14.3402 73.6197C13.6099 72.3922 13.2448 71.0404 13.2448 69.5643C13.2448 68.0881 13.6099 66.7441 14.3402 65.5321C15.0705 64.3046 16.0572 63.3413 17.3002 62.6421C18.5432 61.9429 19.9106 61.5932 21.4022 61.5932C22.8939 61.5932 24.2612 61.9429 25.5043 62.6421C26.7629 63.3413 27.7573 64.3046 28.4876 65.5321C29.2334 66.7441 29.6063 68.0881 29.6063 69.5643C29.6063 71.0404 29.2334 72.3922 28.4876 73.6197C27.7573 74.8317 26.7629 75.7872 25.5043 76.4865C24.2612 77.1857 22.8939 77.5353 21.4022 77.5353ZM21.4255 74.6219C22.3578 74.6219 23.1969 74.4121 23.9427 73.9926C24.7041 73.5575 25.2945 72.9593 25.714 72.198C26.1491 71.4211 26.3666 70.5432 26.3666 69.5643C26.3666 68.6009 26.1491 67.7385 25.714 66.9772C25.2945 66.2003 24.7041 65.5943 23.9427 65.1592C23.1969 64.7242 22.3578 64.5066 21.4255 64.5066C20.4777 64.5066 19.6309 64.7242 18.8851 65.1592C18.1393 65.5788 17.5488 66.177 17.1137 66.9539C16.6942 67.7152 16.4845 68.5854 16.4845 69.5643C16.4845 70.5432 16.6942 71.4211 17.1137 72.198C17.5488 72.9593 18.1393 73.5575 18.8851 73.9926C19.6309 74.4121 20.4777 74.6219 21.4255 74.6219ZM45.3693 61.8729V77.5353H44.3205L35.4172 68.026V77.2556H32.2708V61.5932H33.2963L42.2229 71.0559V61.8729H45.3693ZM52.3589 64.7164H47.4411V61.8729H60.4465V64.7164H55.5054V77.2556H52.3589V64.7164ZM69.8337 75.2512H63.5408L62.6785 77.2556H59.2989L66.1745 61.5932H67.2233L74.0756 77.2556H70.6961L69.8337 75.2512ZM66.6873 67.4666L64.6363 72.6641H68.7383L66.6873 67.4666ZM89.2749 61.8729V77.5353H88.2261L79.3228 68.026V77.2556H76.1763V61.5932H77.2019L86.1285 71.0559V61.8729H89.2749ZM92.7917 61.8729H103.14V64.7164H95.9382V67.8395H101.229V70.5198H95.9382V74.4121H103.42V77.2556H92.7917V61.8729ZM115.592 77.2556L111.606 71.825H109.299V77.2556H106.152V61.8729H111.932C113.005 61.8729 113.96 62.0827 114.799 62.5022C115.638 62.9062 116.291 63.4889 116.757 64.2503C117.239 64.9961 117.48 65.8584 117.48 66.8373C117.48 67.8162 117.239 68.6864 116.757 69.4477C116.275 70.2091 115.615 70.7995 114.776 71.2191L119.134 77.2556H115.592ZM109.299 69.0515H111.932C112.663 69.0515 113.23 68.8495 113.634 68.4455C114.053 68.0415 114.263 67.5055 114.263 66.8373C114.263 66.1847 114.053 65.6564 113.634 65.2525C113.214 64.8485 112.647 64.6465 111.932 64.6465H109.299V69.0515ZM127.991 77.5353C126.499 77.5353 125.132 77.1857 123.889 76.4865C122.646 75.7872 121.659 74.8317 120.929 73.6197C120.199 72.3922 119.834 71.0404 119.834 69.5643C119.834 68.0881 120.199 66.7441 120.929 65.5321C121.659 64.3046 122.646 63.3413 123.889 62.6421C125.132 61.9429 126.499 61.5932 127.991 61.5932C129.483 61.5932 130.85 61.9429 132.093 62.6421C133.352 63.3413 134.346 64.3046 135.076 65.5321C135.822 66.7441 136.195 68.0881 136.195 69.5643C136.195 71.0404 135.822 72.3922 135.076 73.6197C134.346 74.8317 133.352 75.7872 132.093 76.4865C130.85 77.1857 129.483 77.5353 127.991 77.5353ZM128.014 74.6219C128.947 74.6219 129.786 74.4121 130.531 73.9926C131.293 73.5575 131.883 72.9593 132.303 72.198C132.738 71.4211 132.955 70.5432 132.955 69.5643C132.955 68.6009 132.738 67.7385 132.303 66.9772C131.883 66.2003 131.293 65.5943 130.531 65.1592C129.786 64.7242 128.947 64.5066 128.014 64.5066C127.066 64.5066 126.22 64.7242 125.474 65.1592C124.728 65.5788 124.138 66.177 123.703 66.9539C123.283 67.7152 123.073 68.5854 123.073 69.5643C123.073 70.5432 123.283 71.4211 123.703 72.198C124.138 72.9593 124.728 73.5575 125.474 73.9926C126.22 74.4121 127.066 74.6219 128.014 74.6219Z" fill="#00C4FF"/>
<path d="M1.77134 61.8729V61.4204H1.31875V61.8729H1.77134ZM11.8866 61.8729H12.3392V61.4204H11.8866V61.8729ZM11.8866 64.7164V65.169H12.3392V64.7164H11.8866ZM4.91779 64.7164V64.2638H4.4652V64.7164H4.91779ZM4.91779 68.5621H4.4652V69.0146H4.91779V68.5621ZM10.628 68.5621H11.0806V68.1095H10.628V68.5621ZM10.628 71.4055V71.8581H11.0806V71.4055H10.628ZM4.91779 71.4055V70.9529H4.4652V71.4055H4.91779ZM4.91779 77.2556V77.7082H5.37037V77.2556H4.91779ZM1.77134 77.2556H1.31875V77.7082H1.77134V77.2556ZM1.77134 62.3255H11.8866V61.4204H1.77134V62.3255ZM11.434 61.8729V64.7164H12.3392V61.8729H11.434ZM11.8866 64.2638H4.91779V65.169H11.8866V64.2638ZM4.4652 64.7164V68.5621H5.37037V64.7164H4.4652ZM4.91779 69.0146H10.628V68.1095H4.91779V69.0146ZM10.1754 68.5621V71.4055H11.0806V68.5621H10.1754ZM10.628 70.9529H4.91779V71.8581H10.628V70.9529ZM4.4652 71.4055V77.2556H5.37037V71.4055H4.4652ZM4.91779 76.803H1.77134V77.7082H4.91779V76.803ZM2.22392 77.2556V61.8729H1.31875V77.2556H2.22392ZM17.3002 76.4865L17.0783 76.8809L17.3002 76.4865ZM14.3402 73.6197L13.9512 73.8511L13.9526 73.8533L14.3402 73.6197ZM14.3402 65.5321L14.7279 65.7657L14.7292 65.7635L14.3402 65.5321ZM25.5043 62.6421L25.2824 63.0365L25.2845 63.0377L25.5043 62.6421ZM28.4876 65.5321L28.0986 65.7636L28.1021 65.7693L28.4876 65.5321ZM28.4876 73.6197L28.1008 73.3847L28.0999 73.3861L28.4876 73.6197ZM25.5043 76.4865L25.2845 76.0908L25.2824 76.092L25.5043 76.4865ZM23.9427 73.9926L24.1646 74.3871L24.1673 74.3856L23.9427 73.9926ZM25.714 72.198L25.3192 71.9768L25.3177 71.9795L25.714 72.198ZM25.714 66.9772L25.3157 67.1923L25.3211 67.2017L25.714 66.9772ZM23.9427 65.1592L23.7147 65.5502L23.7182 65.5522L23.9427 65.1592ZM18.8851 65.1592L19.107 65.5537L19.1131 65.5502L18.8851 65.1592ZM17.1137 66.9539L16.7189 66.7327L16.7174 66.7355L17.1137 66.9539ZM17.1137 72.198L16.7154 72.4131L16.7208 72.4225L17.1137 72.198ZM18.8851 73.9926L18.657 74.3836L18.6632 74.3871L18.8851 73.9926ZM21.4022 77.0827C19.9846 77.0827 18.6942 76.7513 17.5221 76.092L17.0783 76.8809C18.3923 77.62 19.8366 77.9879 21.4022 77.9879V77.0827ZM17.5221 76.092C16.3467 75.4308 15.4174 74.5305 14.7279 73.3861L13.9526 73.8533C14.7236 75.1329 15.7676 76.1436 17.0783 76.8809L17.5221 76.092ZM14.7292 73.3883C14.042 72.2332 13.6974 70.9618 13.6974 69.5643H12.7922C12.7922 71.119 13.1779 72.5512 13.9513 73.8511L14.7292 73.3883ZM13.6974 69.5643C13.6974 68.1667 14.0419 66.9041 14.7279 65.7657L13.9526 65.2986C13.1779 66.5842 12.7922 68.0096 12.7922 69.5643H13.6974ZM14.7292 65.7635C15.419 64.604 16.3481 63.6969 17.5221 63.0365L17.0783 62.2476C15.7662 62.9857 14.7219 64.0053 13.9513 65.3007L14.7292 65.7635ZM17.5221 63.0365C18.6942 62.3772 19.9846 62.0458 21.4022 62.0458V61.1407C19.8366 61.1407 18.3923 61.5085 17.0783 62.2476L17.5221 63.0365ZM21.4022 62.0458C22.8199 62.0458 24.1103 62.3772 25.2824 63.0365L25.7262 62.2476C24.4122 61.5085 22.9679 61.1407 21.4022 61.1407V62.0458ZM25.2845 63.0377C26.4738 63.6984 27.4096 64.6053 28.0986 65.7635L28.8765 65.3007C28.105 64.0039 27.052 62.9842 25.7241 62.2464L25.2845 63.0377ZM28.1021 65.7693C28.8024 66.9072 29.1537 68.1686 29.1537 69.5643H30.0589C30.0589 68.0077 29.6644 66.581 28.873 65.2949L28.1021 65.7693ZM29.1537 69.5643C29.1537 70.9599 28.8023 72.23 28.1008 73.3847L28.8744 73.8547C29.6645 72.5543 30.0589 71.1208 30.0589 69.5643H29.1537ZM28.0999 73.3861C27.4112 74.5291 26.4752 75.4293 25.2845 76.0908L25.7241 76.8821C27.0505 76.1452 28.1034 75.1342 28.8752 73.8533L28.0999 73.3861ZM25.2824 76.092C24.1103 76.7513 22.8199 77.0827 21.4022 77.0827V77.9879C22.9679 77.9879 24.4122 77.62 25.7262 76.8809L25.2824 76.092ZM21.4255 75.0745C22.4284 75.0745 23.3451 74.848 24.1646 74.3871L23.7208 73.5981C23.0487 73.9762 22.2873 74.1693 21.4255 74.1693V75.0745ZM24.1673 74.3856C25.0002 73.9096 25.6504 73.2513 26.1104 72.4164L25.3177 71.9795C24.9386 72.6674 24.408 73.2055 23.7182 73.5996L24.1673 74.3856ZM26.1089 72.4191C26.5855 71.5681 26.8192 70.6127 26.8192 69.5643H25.9141C25.9141 70.4736 25.7127 71.274 25.3192 71.9768L26.1089 72.4191ZM26.8192 69.5643C26.8192 68.5301 26.5849 67.589 26.107 66.7526L25.3211 67.2017C25.7133 67.8881 25.9141 68.6717 25.9141 69.5643H26.8192ZM26.1123 66.7621C25.6529 65.9114 25.0025 65.2436 24.1673 64.7663L23.7182 65.5522C24.4056 65.945 24.9361 66.4891 25.3158 67.1922L26.1123 66.7621ZM24.1708 64.7683C23.3502 64.2897 22.4314 64.054 21.4255 64.054V64.9592C22.2843 64.9592 23.0435 65.1587 23.7147 65.5502L24.1708 64.7683ZM21.4255 64.054C20.4057 64.054 19.4787 64.289 18.657 64.7683L19.1131 65.5502C19.7831 65.1593 20.5498 64.9592 21.4255 64.9592V64.054ZM18.6632 64.7648C17.8419 65.2268 17.1928 65.8863 16.7189 66.7327L17.5086 67.175C17.9048 66.4676 18.4367 65.9307 19.107 65.5537L18.6632 64.7648ZM16.7174 66.7355C16.2565 67.5718 16.0319 68.5188 16.0319 69.5643H16.937C16.937 68.652 17.1319 67.8587 17.5101 67.1723L16.7174 66.7355ZM16.0319 69.5643C16.0319 70.6099 16.2566 71.5631 16.7155 72.413L17.512 71.9829C17.1319 71.279 16.937 70.4764 16.937 69.5643H16.0319ZM16.7208 72.4225C17.1946 73.2517 17.8415 73.9078 18.657 74.3835L19.1131 73.6017C18.437 73.2073 17.903 72.6669 17.5067 71.9734L16.7208 72.4225ZM18.6632 74.3871C19.4839 74.8487 20.4086 75.0745 21.4255 75.0745V74.1693C20.5469 74.1693 19.778 73.9756 19.107 73.5981L18.6632 74.3871ZM45.3694 61.8729H45.8219V61.4204H45.3694V61.8729ZM45.3694 77.5353V77.9879H45.8219V77.5353H45.3694ZM44.3205 77.5353L43.9902 77.8446L44.1243 77.9879H44.3205V77.5353ZM35.4172 68.026L35.7476 67.7167L34.9647 66.8804V68.026H35.4172ZM35.4172 77.2556V77.7082H35.8698V77.2556H35.4172ZM32.2708 77.2556H31.8182V77.7082H32.2708V77.2556ZM32.2708 61.5932V61.1407H31.8182V61.5932H32.2708ZM33.2963 61.5932L33.6255 61.2827L33.4915 61.1407H33.2963V61.5932ZM42.2229 71.0559L41.8937 71.3665L42.6755 72.1952V71.0559H42.2229ZM42.2229 61.8729V61.4204H41.7703V61.8729H42.2229ZM44.9168 61.8729V77.5353H45.8219V61.8729H44.9168ZM45.3694 77.0827H44.3205V77.9879H45.3694V77.0827ZM44.6509 77.2259L35.7476 67.7167L35.0869 68.3353L43.9902 77.8446L44.6509 77.2259ZM34.9647 68.026V77.2556H35.8698V68.026H34.9647ZM35.4172 76.803H32.2708V77.7082H35.4172V76.803ZM32.7234 77.2556V61.5932H31.8182V77.2556H32.7234ZM32.2708 62.0458H33.2963V61.1407H32.2708V62.0458ZM32.9671 61.9038L41.8937 71.3665L42.5521 70.7453L33.6255 61.2827L32.9671 61.9038ZM42.6755 71.0559V61.8729H41.7703V71.0559H42.6755ZM42.2229 62.3255H45.3694V61.4204H42.2229V62.3255ZM52.3589 64.7164H52.8115V64.2638H52.3589V64.7164ZM47.4411 64.7164H46.9885V65.169H47.4411V64.7164ZM47.4411 61.8729V61.4204H46.9885V61.8729H47.4411ZM60.4465 61.8729H60.899V61.4204H60.4465V61.8729ZM60.4465 64.7164V65.169H60.899V64.7164H60.4465ZM55.5054 64.7164V64.2638H55.0528V64.7164H55.5054ZM55.5054 77.2556V77.7082H55.9579V77.2556H55.5054ZM52.3589 77.2556H51.9063V77.7082H52.3589V77.2556ZM52.3589 64.2638H47.4411V65.169H52.3589V64.2638ZM47.8937 64.7164V61.8729H46.9885V64.7164H47.8937ZM47.4411 62.3255H60.4465V61.4204H47.4411V62.3255ZM59.9939 61.8729V64.7164H60.899V61.8729H59.9939ZM60.4465 64.2638H55.5054V65.169H60.4465V64.2638ZM55.0528 64.7164V77.2556H55.9579V64.7164H55.0528ZM55.5054 76.803H52.3589V77.7082H55.5054V76.803ZM52.8115 77.2556V64.7164H51.9063V77.2556H52.8115ZM69.8337 75.2512L70.2495 75.0723L70.1317 74.7986H69.8337V75.2512ZM63.5408 75.2512V74.7986H63.2429L63.1251 75.0723L63.5408 75.2512ZM62.6785 77.2556V77.7082H62.9764L63.0942 77.4345L62.6785 77.2556ZM59.2989 77.2556L58.8845 77.0737L58.606 77.7082H59.2989V77.2556ZM66.1745 61.5932V61.1407H65.8789L65.7601 61.4113L66.1745 61.5932ZM67.2233 61.5932L67.638 61.4118L67.5193 61.1407H67.2233V61.5932ZM74.0756 77.2556V77.7082H74.7676L74.4902 77.0742L74.0756 77.2556ZM70.6961 77.2556L70.2804 77.4345L70.3981 77.7082H70.6961V77.2556ZM66.6873 67.4666L67.1083 67.3005L66.6873 66.2337L66.2663 67.3005L66.6873 67.4666ZM64.6363 72.6641L64.2153 72.498L63.9711 73.1167H64.6363V72.6641ZM68.7383 72.6641V73.1167H69.4035L69.1593 72.498L68.7383 72.6641ZM69.8337 74.7986H63.5408V75.7038H69.8337V74.7986ZM63.1251 75.0723L62.2627 77.0767L63.0942 77.4345L63.9566 75.43L63.1251 75.0723ZM62.6785 76.803H59.2989V77.7082H62.6785V76.803ZM59.7134 77.4375L66.5889 61.7752L65.7601 61.4113L58.8845 77.0737L59.7134 77.4375ZM66.1745 62.0458H67.2233V61.1407H66.1745V62.0458ZM66.8087 61.7747L73.661 77.437L74.4902 77.0742L67.638 61.4118L66.8087 61.7747ZM74.0756 76.803H70.6961V77.7082H74.0756V76.803ZM71.1118 77.0767L70.2495 75.0723L69.418 75.43L70.2804 77.4345L71.1118 77.0767ZM66.2663 67.3005L64.2153 72.498L65.0573 72.8302L67.1083 67.6328L66.2663 67.3005ZM64.6363 73.1167H68.7383V72.2115H64.6363V73.1167ZM69.1593 72.498L67.1083 67.3005L66.2663 67.6328L68.3173 72.8302L69.1593 72.498ZM89.2749 61.8729H89.7275V61.4204H89.2749V61.8729ZM89.2749 77.5353V77.9879H89.7275V77.5353H89.2749ZM88.2261 77.5353L87.8957 77.8446L88.0298 77.9879H88.2261V77.5353ZM79.3228 68.026L79.6532 67.7167L78.8702 66.8804V68.026H79.3228ZM79.3228 77.2556V77.7082H79.7754V77.2556H79.3228ZM76.1763 77.2556H75.7238V77.7082H76.1763V77.2556ZM76.1763 61.5932V61.1407H75.7238V61.5932H76.1763ZM77.2019 61.5932L77.5311 61.2827L77.3971 61.1407H77.2019V61.5932ZM86.1284 71.0559L85.7992 71.3665L86.581 72.1952V71.0559H86.1284ZM86.1284 61.8729V61.4204H85.6759V61.8729H86.1284ZM88.8223 61.8729V77.5353H89.7275V61.8729H88.8223ZM89.2749 77.0827H88.2261V77.9879H89.2749V77.0827ZM88.5565 77.2259L79.6532 67.7167L78.9924 68.3353L87.8957 77.8446L88.5565 77.2259ZM78.8702 68.026V77.2556H79.7754V68.026H78.8702ZM79.3228 76.803H76.1763V77.7082H79.3228V76.803ZM76.6289 77.2556V61.5932H75.7238V77.2556H76.6289ZM76.1763 62.0458H77.2019V61.1407H76.1763V62.0458ZM76.8726 61.9038L85.7992 71.3665L86.4577 70.7453L77.5311 61.2827L76.8726 61.9038ZM86.581 71.0559V61.8729H85.6759V71.0559H86.581ZM86.1284 62.3255H89.2749V61.4204H86.1284V62.3255ZM92.7917 61.8729V61.4204H92.3391V61.8729H92.7917ZM103.14 61.8729H103.593V61.4204H103.14V61.8729ZM103.14 64.7164V65.169H103.593V64.7164H103.14ZM95.9382 64.7164V64.2638H95.4856V64.7164H95.9382ZM95.9382 67.8395H95.4856V68.2921H95.9382V67.8395ZM101.229 67.8395H101.681V67.387H101.229V67.8395ZM101.229 70.5198V70.9724H101.681V70.5198H101.229ZM95.9382 70.5198V70.0673H95.4856V70.5198H95.9382ZM95.9382 74.4121H95.4856V74.8647H95.9382V74.4121ZM103.42 74.4121H103.872V73.9595H103.42V74.4121ZM103.42 77.2556V77.7082H103.872V77.2556H103.42ZM92.7917 77.2556H92.3391V77.7082H92.7917V77.2556ZM92.7917 62.3255H103.14V61.4204H92.7917V62.3255ZM102.687 61.8729V64.7164H103.593V61.8729H102.687ZM103.14 64.2638H95.9382V65.169H103.14V64.2638ZM95.4856 64.7164V67.8395H96.3908V64.7164H95.4856ZM95.9382 68.2921H101.229V67.387H95.9382V68.2921ZM100.776 67.8395V70.5198H101.681V67.8395H100.776ZM101.229 70.0673H95.9382V70.9724H101.229V70.0673ZM95.4856 70.5198V74.4121H96.3908V70.5198H95.4856ZM95.9382 74.8647H103.42V73.9595H95.9382V74.8647ZM102.967 74.4121V77.2556H103.872V74.4121H102.967ZM103.42 76.803H92.7917V77.7082H103.42V76.803ZM93.2443 77.2556V61.8729H92.3391V77.2556H93.2443ZM115.592 77.2556L115.227 77.5234L115.362 77.7082H115.592V77.2556ZM111.606 71.825L111.971 71.5573L111.835 71.3725H111.606V71.825ZM109.299 71.825V71.3725H108.846V71.825H109.299ZM109.299 77.2556V77.7082H109.751V77.2556H109.299ZM106.152 77.2556H105.7V77.7082H106.152V77.2556ZM106.152 61.8729V61.4204H105.7V61.8729H106.152ZM114.799 62.5022L114.597 62.9071L114.603 62.91L114.799 62.5022ZM116.757 64.2503L116.371 64.4866L116.377 64.4958L116.757 64.2503ZM114.776 71.2191L114.574 70.8143L114.097 71.0524L114.409 71.484L114.776 71.2191ZM119.134 77.2556V77.7082H120.019L119.501 76.9907L119.134 77.2556ZM109.299 69.0515H108.846V69.5041H109.299V69.0515ZM113.634 68.4455L113.32 68.1195L113.314 68.1255L113.634 68.4455ZM113.634 65.2525L113.948 64.9265L113.634 65.2525ZM109.299 64.6465V64.1939H108.846V64.6465H109.299ZM115.957 76.9878L111.971 71.5573L111.241 72.0928L115.227 77.5234L115.957 76.9878ZM111.606 71.3725H109.299V72.2776H111.606V71.3725ZM108.846 71.825V77.2556H109.751V71.825H108.846ZM109.299 76.803H106.152V77.7082H109.299V76.803ZM106.605 77.2556V61.8729H105.7V77.2556H106.605ZM106.152 62.3255H111.932V61.4204H106.152V62.3255ZM111.932 62.3255C112.944 62.3255 113.829 62.5231 114.597 62.907L115.002 62.0974C114.091 61.6423 113.065 61.4204 111.932 61.4204V62.3255ZM114.603 62.91C115.367 63.278 115.952 63.8027 116.371 64.4866L117.143 64.0139C116.629 63.1751 115.909 62.5345 114.996 62.0944L114.603 62.91ZM116.377 64.4958C116.806 65.161 117.027 65.9363 117.027 66.8373H117.932C117.932 65.7806 117.671 64.8311 117.137 64.0047L116.377 64.4958ZM117.027 66.8373C117.027 67.7383 116.806 68.523 116.375 69.2058L117.139 69.6897C117.671 68.8497 117.932 67.8942 117.932 66.8373H117.027ZM116.375 69.2058C115.939 69.8945 115.342 70.43 114.574 70.8143L114.978 71.6239C115.888 71.1691 116.612 70.5237 117.139 69.6897L116.375 69.2058ZM114.409 71.484L118.767 77.5205L119.501 76.9907L115.143 70.9541L114.409 71.484ZM119.134 76.803H115.592V77.7082H119.134V76.803ZM109.299 69.5041H111.932V68.5989H109.299V69.5041ZM111.932 69.5041C112.748 69.5041 113.443 69.2763 113.954 68.7655L113.314 68.1255C113.017 68.4227 112.578 68.5989 111.932 68.5989V69.5041ZM113.948 68.7715C114.469 68.2694 114.716 67.6087 114.716 66.8373H113.811C113.811 67.4022 113.638 67.8136 113.32 68.1195L113.948 68.7715ZM114.716 66.8373C114.716 66.078 114.467 65.4264 113.948 64.9265L113.32 65.5785C113.64 65.8865 113.811 66.2914 113.811 66.8373H114.716ZM113.948 64.9265C113.426 64.4236 112.736 64.1939 111.932 64.1939V65.0991C112.558 65.0991 113.003 65.2733 113.32 65.5785L113.948 64.9265ZM111.932 64.1939H109.299V65.0991H111.932V64.1939ZM108.846 64.6465V69.0515H109.751V64.6465H108.846ZM123.889 76.4865L123.667 76.8809L123.889 76.4865ZM120.929 73.6197L120.54 73.8511L120.541 73.8533L120.929 73.6197ZM120.929 65.5321L121.317 65.7657L121.318 65.7635L120.929 65.5321ZM132.093 62.6421L131.871 63.0365L131.873 63.0377L132.093 62.6421ZM135.076 65.5321L134.687 65.7636L134.691 65.7693L135.076 65.5321ZM135.076 73.6197L134.69 73.3847L134.689 73.3861L135.076 73.6197ZM132.093 76.4865L131.873 76.0908L131.871 76.092L132.093 76.4865ZM130.531 73.9926L130.753 74.3871L130.756 74.3856L130.531 73.9926ZM132.303 72.198L131.908 71.9768L131.906 71.9795L132.303 72.198ZM132.303 66.9772L131.904 67.1923L131.91 67.2017L132.303 66.9772ZM130.531 65.1592L130.303 65.5502L130.307 65.5522L130.531 65.1592ZM125.474 65.1592L125.696 65.5537L125.702 65.5502L125.474 65.1592ZM123.703 66.9539L123.308 66.7327L123.306 66.7355L123.703 66.9539ZM123.703 72.198L123.304 72.4131L123.31 72.4225L123.703 72.198ZM125.474 73.9926L125.246 74.3836L125.252 74.3871L125.474 73.9926ZM127.991 77.0827C126.573 77.0827 125.283 76.7513 124.111 76.092L123.667 76.8809C124.981 77.62 126.425 77.9879 127.991 77.9879V77.0827ZM124.111 76.092C122.935 75.4308 122.006 74.5305 121.317 73.3861L120.541 73.8533C121.312 75.1329 122.356 76.1436 123.667 76.8809L124.111 76.092ZM121.318 73.3883C120.631 72.2332 120.286 70.9618 120.286 69.5643H119.381C119.381 71.119 119.767 72.5512 120.54 73.8511L121.318 73.3883ZM120.286 69.5643C120.286 68.1667 120.631 66.9041 121.317 65.7657L120.541 65.2986C119.767 66.5842 119.381 68.0096 119.381 69.5643H120.286ZM121.318 65.7635C122.008 64.604 122.937 63.6969 124.111 63.0365L123.667 62.2476C122.355 62.9857 121.311 64.0053 120.54 65.3007L121.318 65.7635ZM124.111 63.0365C125.283 62.3772 126.573 62.0458 127.991 62.0458V61.1407C126.425 61.1407 124.981 61.5085 123.667 62.2476L124.111 63.0365ZM127.991 62.0458C129.409 62.0458 130.699 62.3772 131.871 63.0365L132.315 62.2476C131.001 61.5085 129.557 61.1407 127.991 61.1407V62.0458ZM131.873 63.0377C133.063 63.6984 133.998 64.6053 134.687 65.7635L135.465 65.3007C134.694 64.0039 133.641 62.9842 132.313 62.2464L131.873 63.0377ZM134.691 65.7693C135.391 66.9072 135.742 68.1686 135.742 69.5643H136.648C136.648 68.0077 136.253 66.581 135.462 65.2949L134.691 65.7693ZM135.742 69.5643C135.742 70.9599 135.391 72.23 134.69 73.3847L135.463 73.8547C136.253 72.5543 136.648 71.1208 136.648 69.5643H135.742ZM134.689 73.3861C134 74.5291 133.064 75.4293 131.873 76.0908L132.313 76.8821C133.639 76.1452 134.692 75.1342 135.464 73.8533L134.689 73.3861ZM131.871 76.092C130.699 76.7513 129.409 77.0827 127.991 77.0827V77.9879C129.557 77.9879 131.001 77.62 132.315 76.8809L131.871 76.092ZM128.014 75.0745C129.017 75.0745 129.934 74.848 130.753 74.3871L130.31 73.5981C129.637 73.9762 128.876 74.1693 128.014 74.1693V75.0745ZM130.756 74.3856C131.589 73.9096 132.239 73.2513 132.699 72.4164L131.906 71.9795C131.527 72.6674 130.997 73.2055 130.307 73.5996L130.756 74.3856ZM132.698 72.4191C133.174 71.5681 133.408 70.6127 133.408 69.5643H132.503C132.503 70.4736 132.301 71.274 131.908 71.9768L132.698 72.4191ZM133.408 69.5643C133.408 68.5301 133.174 67.589 132.696 66.7526L131.91 67.2017C132.302 67.8881 132.503 68.6717 132.503 69.5643H133.408ZM132.701 66.7621C132.242 65.9114 131.591 65.2436 130.756 64.7663L130.307 65.5522C130.994 65.945 131.525 66.4891 131.905 67.1922L132.701 66.7621ZM130.76 64.7683C129.939 64.2897 129.02 64.054 128.014 64.054V64.9592C128.873 64.9592 129.632 65.1587 130.303 65.5502L130.76 64.7683ZM128.014 64.054C126.994 64.054 126.067 64.289 125.246 64.7683L125.702 65.5502C126.372 65.1593 127.139 64.9592 128.014 64.9592V64.054ZM125.252 64.7648C124.431 65.2268 123.782 65.8863 123.308 66.7327L124.097 67.175C124.494 66.4676 125.025 65.9307 125.696 65.5537L125.252 64.7648ZM123.306 66.7355C122.845 67.5718 122.621 68.5188 122.621 69.5643H123.526C123.526 68.652 123.721 67.8587 124.099 67.1723L123.306 66.7355ZM122.621 69.5643C122.621 70.6099 122.845 71.5631 123.304 72.413L124.101 71.9829C123.721 71.279 123.526 70.4764 123.526 69.5643H122.621ZM123.31 72.4225C123.783 73.2517 124.43 73.9078 125.246 74.3835L125.702 73.6017C125.026 73.2073 124.492 72.6669 124.095 71.9734L123.31 72.4225ZM125.252 74.3871C126.073 74.8487 126.997 75.0745 128.014 75.0745V74.1693C127.136 74.1693 126.367 73.9756 125.696 73.5981L125.252 74.3871Z" fill="#00C4FF"/>
</mask>
<g mask="url(#mask0_11_118)">
<path d="M0.689326 74.0357C19.303 62.0227 34.3553 68.512 56.5303 74.0357C78.7053 79.5594 85.0487 52.7433 143.029 79.7261C156.81 86.1392 134.27 109.442 134.27 109.442H0.689324C0.689324 109.442 -9.76209 80.7809 0.689326 74.0357Z" fill="#058FF8"/>
</g>
</svg>
