<svg width="20" height="20" viewBox="0 0 20 20" fill="none" xmlns="http://www.w3.org/2000/svg">
<g clip-path="url(#clip0_740_3641)">
<path d="M15.9073 14.4926C15.5167 14.1021 14.8836 14.102 14.493 14.4926C14.1025 14.8831 14.1025 15.5163 14.493 15.9068L15.9073 14.4926ZM17.693 19.1067C18.0835 19.4973 18.7166 19.4973 19.1072 19.1068C19.4977 18.7162 19.4977 18.0831 19.1072 17.6925L17.693 19.1067ZM14.493 15.9068L17.693 19.1067L19.1072 17.6925L15.9073 14.4926L14.493 15.9068ZM8.8001 14.9996C5.37593 14.9996 2.6001 12.2238 2.6001 8.79961H0.600098C0.600098 13.3283 4.27136 16.9996 8.8001 16.9996V14.9996ZM15.0001 8.79961C15.0001 12.2238 12.2243 14.9996 8.8001 14.9996V16.9996C13.3288 16.9996 17.0001 13.3283 17.0001 8.79961H15.0001ZM8.8001 2.59961C12.2243 2.59961 15.0001 5.37544 15.0001 8.79961H17.0001C17.0001 4.27087 13.3288 0.599609 8.8001 0.599609V2.59961ZM8.8001 0.599609C4.27136 0.599609 0.600098 4.27087 0.600098 8.79961H2.6001C2.6001 5.37544 5.37593 2.59961 8.8001 2.59961V0.599609Z" fill="#61707B"/>
</g>
<defs>
<clipPath id="clip0_740_3641">
<rect width="20" height="20" fill="white"/>
</clipPath>
</defs>
</svg>
