<svg width="17" height="20" viewBox="0 0 17 20" fill="none" xmlns="http://www.w3.org/2000/svg">
<path d="M12.0357 4.78947C12.0357 6.38405 10.5421 7.82895 8.5 7.82895V9.32895C11.1917 9.32895 13.5357 7.38064 13.5357 4.78947H12.0357ZM8.5 7.82895C6.45787 7.82895 4.96429 6.38405 4.96429 4.78947H3.46429C3.46429 7.38064 5.80826 9.32895 8.5 9.32895V7.82895ZM4.96429 4.78947C4.96429 3.1949 6.45787 1.75 8.5 1.75V0.25C5.80826 0.25 3.46429 2.19831 3.46429 4.78947H4.96429ZM8.5 1.75C10.5421 1.75 12.0357 3.1949 12.0357 4.78947H13.5357C13.5357 2.19831 11.1917 0.25 8.5 0.25V1.75ZM5.28571 12.1711H11.7143V10.6711H5.28571V12.1711ZM11.7143 18.25H5.28571V19.75H11.7143V18.25ZM5.28571 18.25C3.24359 18.25 1.75 16.8051 1.75 15.2105H0.25C0.25 17.8017 2.59397 19.75 5.28571 19.75V18.25ZM15.25 15.2105C15.25 16.8051 13.7564 18.25 11.7143 18.25V19.75C14.406 19.75 16.75 17.8017 16.75 15.2105H15.25ZM11.7143 12.1711C13.7564 12.1711 15.25 13.616 15.25 15.2105H16.75C16.75 12.6194 14.406 10.6711 11.7143 10.6711V12.1711ZM5.28571 10.6711C2.59397 10.6711 0.25 12.6194 0.25 15.2105H1.75C1.75 13.616 3.24359 12.1711 5.28571 12.1711V10.6711Z" fill="#1785E5"/>
</svg>
